<svg xmlns="http://www.w3.org/2000/svg" viewBox="0 0 16 16"><path d="M11.0137,0.704956c-0.085022,-0.339966 -0.339417,-0.599548 -0.65863,-0.70459c-0.414795,0.700073 -1.09186,1.94727 -1.09186,1.94727l0.500488,2h-7.43848l0.499512,-2c0,0 -0.675232,-1.24744 -1.09009,-1.94763c-0.320435,0.104614 -0.575684,0.364624 -0.660889,0.705444l-0.999023,4c-0.0747069,0.298828 -0.0073242,0.615234 0.182129,0.85791c0.189453,0.242676 0.47998,0.384277 0.788086,0.384277h10c0.308105,0 0.598633,-0.14209 0.788086,-0.384766c0.189941,-0.242676 0.256836,-0.55957 0.182129,-0.85791l-1.00146,-4Z" transform="translate(1.955 10.052)"/><path d="M5,0c-2.76141,0 -5,2.23859 -5,5c0,4 5,9 5,9c0,0 5,-5 5,-9c1.77636e-15,-2.76141 -2.23859,-5 -5,-5Zm0,6c-0.552307,0 -1,-0.447754 -1,-1c0,-0.552307 0.447693,-1 1,-1c0.552307,0 1,0.447693 1,1c0,0.552246 -0.447693,1 -1,1Z" transform="translate(3)"/></svg>