<svg xmlns="http://www.w3.org/2000/svg" width="24" height="24" fill="none" viewBox="0 0 24 24"><path fill="#000" d="M12 23C18.0751 23 23 18.0751 23 12C23 9.52903 22.1853 7.24835 20.8098 5.41195C20.5385 5.04985 20 5.25568 20 5.7081V8C20 8.55228 19.5523 9 19 9H14C13.4477 9 13 8.55228 13 8C13 7.44772 13.4477 7 14 7H16.8992C15.636 5.762 13.9066 5 12 5C8.13401 5 5 8.13401 5 12C5 15.866 8.13401 19 12 19C15.866 19 19 15.866 19 12C19 11.4477 19.4477 11 20 11C20.5523 11 21 11.4477 21 12C21 16.9706 16.9706 21 12 21C7.02944 21 3 16.9706 3 12C3 7.02944 7.02944 3 12 3C14.3057 3 16.4083 3.8673 18 5.29188V3.06586C18.0015 2.89577 17.9359 2.7359 17.7914 2.64622C16.1094 1.60259 14.1251 1 12 1C5.92487 1 1 5.92487 1 12C1 18.0751 5.92487 23 12 23Z"/></svg>