<svg xmlns="http://www.w3.org/2000/svg" xmlns:svgjs="http://svgjs.com/svgjs" xmlns:xlink="http://www.w3.org/1999/xlink" width="288" height="288"><svg xmlns="http://www.w3.org/2000/svg" width="288" height="288" viewBox="0 0 24 24"><g fill="#303c42" class="color303c42 svgShape" data-name="User Circle"><circle cx="12" cy="9.5" r="5.5" fill="#000" class="color000 svgShape"/><path fill="#000" d="M21.39 19.45A12 12 0 1 0 0 12a11.93 11.93 0 0 0 2.61 7.44 12 12 0 0 0 18.73 0ZM12 2a10 10 0 0 1 8 16 18.83 18.83 0 0 0-8-2 18.83 18.83 0 0 0-8 2 10 10 0 0 1 8-16Z" class="color000 svgShape"/></g></svg></svg>